<svg xmlns="http://www.w3.org/2000/svg" xmlns:xlink="http://www.w3.org/1999/xlink" width="70" height="26" viewBox="0 0 70 26">
    <defs>
        <path id="9xyy8yv6ta" d="M42.978 8.536c2.095 0 3.615.962 4.536 2.223l-2.855 1.902c-.369-.573-1.22-.894-1.911-.894-1.98 0-3.823 1.925-3.823 3.782 0 1.214.922 2.154 2.142 2.154.944 0 2.003-.528 2.67-1.17l2.28 2.339c-1.473 1.352-3.223 2.062-5.227 2.062-3.177 0-5.549-2.36-5.549-5.294 0-3.896 3.845-7.104 7.737-7.104zm22.39 0c2.095 0 3.615.962 4.536 2.223l-2.856 1.902c-.368-.573-1.22-.894-1.91-.894-1.981 0-3.823 1.925-3.823 3.782 0 1.214.92 2.154 2.141 2.154.944 0 2.003-.528 2.671-1.17l2.28 2.339c-1.474 1.352-3.224 2.062-5.227 2.062-3.177 0-5.55-2.36-5.55-5.294 0-3.896 3.846-7.104 7.738-7.104zm-43.843 0c2.096 0 3.83.997 4.788 2.494.418.653.689 1.402.777 2.205l-3.764 1.676-5.137 2.287c.382.316.882.505 1.449.505.96 0 1.91-.47 2.628-1.168l2.335 2.394c-1.432 1.237-3.31 2.005-5.194 2.005-1.966 0-3.614-.879-4.602-2.23-.458-.626-.773-1.355-.912-2.145-.053-.298-.081-.605-.081-.919 0-3.919 3.845-7.105 7.713-7.105zm12.996-4.31l-.973 4.585h2.464l-.645 3.093h-2.464c-.902 4.337-1.005 4.78-1.012 5.051v.037c0 .505.23.711.643.711.53 0 1.083-.275 1.336-.505l.414 2.705c-.805.642-1.956 1.031-3.016 1.031-1.957 0-3.246-1.306-3.246-3.117v-.04l.003-.12c.024-.56.204-1.367 1.148-5.753h-1.589l.668-3.093h1.566l.583-2.75 4.12-1.834zm-24.794.688c2.555 0 4.282 1.444 4.282 3.438 0 1.788-1.197 3.346-2.993 4.148 1.29.62 2.141 1.88 2.141 3.323 0 2.98-2.9 4.836-6.148 4.836H0L3.293 4.914h6.433zm43.71 0L50.154 20.66h-3.7l3.282-15.745h3.7zm4.46 3.896L55.41 20.66h-3.715l2.487-11.85h3.715zM7.654 14.173H5.273l-.668 3.163h2.151c1.45 0 2.556-.894 2.556-2.108 0-.688-.553-1.055-1.658-1.055zm13.665-2.406c-1.794 0-3.493 1.524-3.83 3.191l5.508-2.452c-.392-.454-.982-.739-1.678-.739zM8.322 8.237H6.516l-.598 2.911H7.47c1.358 0 2.395-.848 2.395-1.971-.024-.619-.53-.94-1.543-.94zM56.979 3.54c1.06 0 1.842.847 1.842 1.879 0 1.169-1.059 2.2-2.187 2.2-1.129 0-1.911-.825-1.911-1.857 0-1.237 1.105-2.222 2.256-2.222z"/>
    </defs>
    <g fill="none" fill-rule="evenodd">
        <g>
            <g>
                <g>
                    <g>
                        <g transform="translate(-10 -39) translate(-1) translate(1) translate(0 25) translate(10 14.347)">
                            <mask id="rd80rr5drb" fill="#fff">
                                <use xlink:href="#9xyy8yv6ta"/>
                            </mask>
                            <use fill="#FEFEFE" xlink:href="#9xyy8yv6ta"/>
                            <g fill="#FFF" mask="url(#rd80rr5drb)">
                                <path d="M0 0H70V25.775H0z"/>
                            </g>
                        </g>
                    </g>
                </g>
            </g>
        </g>
    </g>
</svg>
