<svg xmlns="http://www.w3.org/2000/svg" xmlns:xlink="http://www.w3.org/1999/xlink" width="27" height="25" viewBox="0 0 27 25">
    <defs>
        <path id="oze2kwybya" d="M6.802 17.008l2.69.574.198.334c-.071.867-.032 1.625.037 2.171-.339-.042-.674-.09-.95-.135-.687-.148-1.35-.36-1.975-.651v-2.293zm-2.754-4.924l1.69-3.322 4.9.54 1.088 3.363c-.947 1.228-1.494 2.486-1.78 3.648l-3.839-.819-2.059-3.41zm1.418 6.466c-2.46-1.677-4.087-4.489-4.124-7.676l2.34 1.932.01-.022 1.774 2.938v2.828zM2.336 7.898l1.634-.985.494 1.406-1.218 2.395-1.273-1.05.362-1.766zM7.221 2.03l-2.52 2.94-.018-.047-2.194 1.32C3.53 4.35 5.203 2.85 7.222 2.03zm5.186 1.84l.862 1.932-2.559 2.837-4.908-.54-.847-2.403 3.09-3.6 4.362 1.775zM10.76 1.336c.712 0 1.402.086 2.069.235l-.59.79-2.405-.978c.304-.03.613-.047.926-.047zm3.424.653c1.99.779 3.646 2.211 4.712 4.035l-1.962 1.398-3.105-2.01-.824-1.846 1.179-1.577zm5.63 6.212c.017.065.037.133.051.197.01.036.015.074.024.11.052.243.098.48.131.685-.717-.096-1.69-.128-2.766.048l.068-1.275 1.89-1.349c.249.505.448 1.035.601 1.584zm-7.055 3.314l-.752-2.32 1.92-2.127 2.035 1.317-.064 1.198c-1.043.352-2.12.956-3.139 1.932zm.704 1.156c2.76-2.843 6.19-2.252 7.178-2.004l.91.23-.082-.934c-.001-.012-.007-.088-.02-.195-.052-.57-.144-1.128-.282-1.669-.064-.283-.137-.575-.227-.87l-.028.008C19.451 3.028 15.457 0 10.76 0 4.827 0 0 4.826 0 10.758c0 4.955 3.371 9.128 7.937 10.372l-.002.007c.086.025.2.052.325.076.657.159 1.336.252 2.033.282l.191.02.97.094-.26-.938c-.05-.18-1.185-4.443 2.268-8.001zm5.433 10.995c-.384 0-.754-.051-1.113-.132.027-.896-.099-2.585-1.295-3.638-.972-.855-2-1.139-2.666-1.232 0-.028-.008-.052-.008-.08 0-2.801 2.279-5.08 5.082-5.08.515 0 1.002.1 1.472.242-.148.832-.305 2.653.807 3.913.976 1.105 2.108 1.484 2.732 1.618-.34 2.471-2.447 4.389-5.011 4.389M14.06 20.07c.443.116 1 .349 1.545.828.618.545.794 1.428.832 2.106-1.133-.632-1.988-1.675-2.377-2.934m7.572-5.755c1.222.787 2.068 2.08 2.274 3.583-.46-.142-1.135-.447-1.732-1.124-.62-.703-.622-1.77-.542-2.459m-2.738-2.148c-3.538 0-6.418 2.879-6.418 6.416 0 3.538 2.88 6.417 6.418 6.417 3.537 0 6.417-2.879 6.417-6.417 0-3.537-2.88-6.416-6.417-6.416"/>
    </defs>
    <g fill="none" fill-rule="evenodd">
        <g>
            <g>
                <g>
                    <g transform="translate(-25 -1101) translate(-1 1096) translate(22.042 5) translate(3.996)">
                        <mask id="la7vduik2b" fill="#fff">
                            <use xlink:href="#oze2kwybya"/>
                        </mask>
                        <use fill="#606060" xlink:href="#oze2kwybya"/>
                        <g fill="#666" mask="url(#la7vduik2b)">
                            <path d="M0 0H25V25H0z"/>
                        </g>
                    </g>
                </g>
            </g>
        </g>
    </g>
</svg>
