<svg xmlns="http://www.w3.org/2000/svg" width="25" height="25" viewBox="0 0 25 25">
    <g fill="none" fill-rule="evenodd">
        <g fill-rule="nonzero">
            <g>
                <g>
                    <g>
                        <g>
                            <g>
                                <g>
                                    <path fill="#3232CB" d="M12.5 0C19.404 0 25 5.596 25 12.5S19.404 25 12.5 25 0 19.404 0 12.5 5.596 0 12.5 0z" transform="translate(-20 -504) translate(-1) translate(11 221) translate(0 261) translate(0 -1) translate(10 11) translate(0 12)"/>
                                    <path fill="#FFF" d="M13.654 3.883c-2.016 0-3.986.82-5.405 2.25-1.712 1.708-2.312 3.836-1.83 6.519l.17.821c.254 1.22-.006 2.393-.679 3.069l-1.718 1.715c-.111.11-.174.26-.175.416 0 .157.062.307.174.417l1.914 1.928c.25.16.564.127.76-.076l1.718-1.712c.495-.492 1.255-.763 2.144-.763.306 0 .622.032.919.096l.835.178c2.663.491 4.782-.096 6.494-1.808 1.447-1.428 2.264-3.376 2.267-5.409.019-2.024-.775-3.972-2.203-5.407-1.422-1.438-3.363-2.243-5.385-2.234zm-1.113 13.662L7.617 12.61l-.038-.185c-.405-2.257.087-4.044 1.505-5.459 1.212-1.212 2.855-1.896 4.57-1.902 1.718 0 3.363.688 4.547 1.886 1.202 1.214 1.872 2.857 1.86 4.566-.003 1.72-.695 3.37-1.921 4.578-1.42 1.42-3.205 1.895-5.429 1.486l-.17-.036zm-4.09.327c-.254.142-.489.317-.698.519l-1.3 1.299-1.009-1.015 1.301-1.3.235-.302L9 15.259l.925.927-1.474 1.686zM7.844 14.1l.66.663-.774.677c.096-.43.134-.882.114-1.34zm3.195 3.201c-.417-.02-.834.012-1.243.096l.625-.715.618.62z" transform="translate(-20 -504) translate(-1) translate(11 221) translate(0 261) translate(0 -1) translate(10 11) translate(0 12)"/>
                                </g>
                            </g>
                        </g>
                    </g>
                </g>
            </g>
        </g>
    </g>
</svg>
