<svg xmlns="http://www.w3.org/2000/svg" xmlns:xlink="http://www.w3.org/1999/xlink" width="40" height="45" viewBox="0 0 40 45">
    <defs>
        <path id="ijib5xbzca" d="M0 37.901L29.41 37.901 29.41 0 0 0z"/>
    </defs>
    <g fill="none" fill-rule="evenodd">
        <g>
            <g>
                <g>
                    <g transform="translate(-20 -156) translate(10 90) translate(10.366 66) rotate(-13 34.115 -.37)">
                        <path fill="#C9CBCB" d="M14.704 0c-1.948 0-3.529 1.59-3.529 3.553 0 1.962 1.58 3.553 3.53 3.553 1.948 0 3.528-1.59 3.528-3.553 0-1.962-1.58-3.553-3.529-3.553m0 6.091c-1.39 0-2.52-1.136-2.52-2.538s1.13-2.538 2.52-2.538c1.392 0 2.522 1.136 2.522 2.538s-1.13 2.538-2.522 2.538"/>
                        <mask id="tg8nwehnnb" fill="#fff">
                            <use xlink:href="#ijib5xbzca"/>
                        </mask>
                        <path fill="#666" d="M13.83 8.97L15.58 8.97 15.58 5.095 13.83 5.095z" mask="url(#tg8nwehnnb)"/>
                        <path fill="#999" d="M16.183 6.896h-2.958V3.523c.001-.905 2.958-.905 2.958 0v3.374z" mask="url(#tg8nwehnnb)"/>
                        <path fill="#666" d="M2.185 12.25L3.933 10.489 5.68 12.249 3.933 14.01z" mask="url(#tg8nwehnnb)"/>
                        <path fill="#999" d="M5.047 10.4l-2.953 2.975L.272 11.54c-.363-.365-.362-.957 0-1.322l1.64-1.651c.363-.365.95-.365 1.312 0L5.047 10.4z" mask="url(#tg8nwehnnb)"/>
                        <path fill="#666" d="M25.476 10.491L27.223 12.251 25.476 14.009 23.729 12.251z" mask="url(#tg8nwehnnb)"/>
                        <path fill="#999" d="M27.314 13.373L24.361 10.4l1.823-1.836c.363-.364.95-.364 1.312 0l1.642 1.652c.361.365.361.956 0 1.321l-1.824 1.836z" mask="url(#tg8nwehnnb)"/>
                        <path fill="#999" d="M14.704 8.291c8.122 0 14.705 6.629 14.705 14.806 0 8.176-6.583 14.805-14.705 14.805C6.584 37.902 0 31.272 0 23.097 0 14.92 6.583 8.29 14.704 8.29" mask="url(#tg8nwehnnb)"/>
                        <path fill="#C9CBCB" d="M14.704 10.264c7.04 0 12.745 5.745 12.745 12.833 0 7.086-5.706 12.832-12.745 12.832-7.038 0-12.744-5.746-12.744-12.832 0-7.088 5.706-12.833 12.744-12.833" mask="url(#tg8nwehnnb)"/>
                        <path fill="#FFF" d="M14.704 11.252c6.498 0 11.765 5.303 11.765 11.845 0 6.541-5.267 11.844-11.765 11.844-6.496 0-11.764-5.303-11.764-11.844 0-6.542 5.268-11.845 11.764-11.845" mask="url(#tg8nwehnnb)"/>
                        <path fill="#D40E12" d="M26.469 23.097c0 3.25-1.301 6.194-3.406 8.333l-8.359-8.333V11.252c6.497 0 11.765 5.304 11.765 11.845" mask="url(#tg8nwehnnb)"/>
                        <path fill="#111" d="M21.458 29.831L15.463 22.679 14.29 23.861zM14.29 15.581L15.119 15.581 15.119 12.239 14.29 12.239zM14.29 33.954L15.119 33.954 15.119 30.612 14.29 30.612zM3.921 23.514L7.24 23.514 7.24 22.68 3.921 22.68z" mask="url(#tg8nwehnnb)"/>
                        <path fill="#FFF" d="M22.17 23.514L25.487 23.514 25.487 22.68 22.17 22.68z" mask="url(#tg8nwehnnb)"/>
                        <path fill="#111" d="M8.954 13.902L9.673 13.484 10.502 14.932 9.783 15.348zM5.158 18.029L5.574 17.305 7.01 18.14 6.595 18.864zM5.573 28.888L5.158 28.166 6.595 27.329 7.01 28.052zM9.673 32.708L8.955 32.29 9.785 30.843 10.503 31.262zM20.455 32.293L19.738 32.71 18.907 31.264 19.625 30.846z" mask="url(#tg8nwehnnb)"/>
                        <path fill="#FFF" d="M24.248 28.164L23.833 28.886 22.396 28.051 22.811 27.328zM23.837 17.306L24.251 18.029 22.815 18.865 22.401 18.141zM19.737 13.487L20.455 13.904 19.626 15.35 18.907 14.932z" mask="url(#tg8nwehnnb)"/>
                        <path fill="#111" d="M14.704 21.426c.917 0 1.66.747 1.66 1.67 0 .923-.743 1.67-1.66 1.67-.915 0-1.66-.747-1.66-1.67 0-.923.745-1.67 1.66-1.67" mask="url(#tg8nwehnnb)"/>
                    </g>
                </g>
            </g>
        </g>
    </g>
</svg>
