<svg xmlns="http://www.w3.org/2000/svg" xmlns:xlink="http://www.w3.org/1999/xlink" width="25" height="25" viewBox="0 0 25 25">
    <defs>
        <path id="una1rsvtxa" d="M12.5.5c6.627 0 12 5.373 12 12s-5.373 12-12 12-12-5.373-12-12 5.373-12 12-12zm2.035 15.55h-4.046l-2.253 3.047 1.944 3.135c.76.178 1.538.268 2.32.268.801 0 1.6-.095 2.38-.281l1.866-3.156-2.211-3.013zm5.535-5.429l-3.6 1.132-1.25 3.777 2.253 3.049 3.608-.84c.83-1.35 1.316-2.877 1.419-4.45l-2.43-2.668zM4.866 10.61L2.5 13.32c.11 1.583.606 3.117 1.449 4.472l3.58.755 2.234-2.997-1.248-3.777-3.649-1.163zm3.909-7.088c-1.528.607-2.882 1.571-3.943 2.81l.362 3.473 3.591 1.16 3.252-2.318.016-3.781zm7.388-.022L12.92 4.906v3.727l3.255 2.32 3.648-1.163.29-3.523c-1.067-1.224-2.423-2.175-3.95-2.767z"/>
    </defs>
    <g fill="none" fill-rule="evenodd">
        <g>
            <g>
                <g>
                    <g>
                        <g>
                            <g>
                                <g transform="translate(-20 -651) translate(-1) translate(11 221) translate(0 409) translate(0 -2) translate(10 8) translate(0 15)">
                                    <path fill="#FFF" fill-rule="nonzero" d="M12.5 0C19.404 0 25 5.596 25 12.5S19.404 25 12.5 25 0 19.404 0 12.5 5.596 0 12.5 0z"/>
                                    <mask id="k69mj7u01b" fill="#fff">
                                        <use xlink:href="#una1rsvtxa"/>
                                    </mask>
                                    <use fill="#000" fill-rule="nonzero" xlink:href="#una1rsvtxa"/>
                                    <g fill="#111" mask="url(#k69mj7u01b)">
                                        <path d="M0 0H25V25H0z"/>
                                    </g>
                                </g>
                            </g>
                        </g>
                    </g>
                </g>
            </g>
        </g>
    </g>
</svg>
