<svg xmlns="http://www.w3.org/2000/svg" xmlns:xlink="http://www.w3.org/1999/xlink" width="25" height="25" viewBox="0 0 25 25">
    <defs>
        <path id="ueui86bcca" d="M12.5.25c3.452 0 6.25 2.798 6.25 6.25 0 2.575-1.558 4.787-3.783 5.744 4.568.91 7.292 4.4 8.171 10.47.159 1.092-.599 2.107-1.692 2.265-.095.014-.191.021-.287.021H3.869c-1.104 0-2-.895-2-2 0-.077.005-.155.014-.231.72-6.18 3.41-9.7 8.072-10.56C7.77 11.235 6.25 9.045 6.25 6.5 6.25 3.048 9.048.25 12.5.25zm-.127 13.25c-5.346 0-8.247 2.978-9 9.442L3.37 23c0 .276.223.5.5.5h17.289c.024 0 .048-.002.072-.005.273-.04.462-.293.423-.567-.934-6.444-3.933-9.428-9.28-9.428zM12.5 1.75c-2.623 0-4.75 2.127-4.75 4.75s2.127 4.75 4.75 4.75 4.75-2.127 4.75-4.75-2.127-4.75-4.75-4.75z"/>
    </defs>
    <g fill="none" fill-rule="evenodd">
        <g>
            <g>
                <g>
                    <g>
                        <g>
                            <g transform="translate(-325 -40) translate(-1) translate(1) translate(0 25) translate(325 10) translate(0 5)">
                                <mask id="sxdsuv1r8b" fill="#fff">
                                    <use xlink:href="#ueui86bcca"/>
                                </mask>
                                <use fill="#FFF" fill-rule="nonzero" xlink:href="#ueui86bcca"/>
                                <g fill="#FFF" mask="url(#sxdsuv1r8b)">
                                    <path d="M0 0H25V25H0z"/>
                                </g>
                            </g>
                        </g>
                    </g>
                </g>
            </g>
        </g>
    </g>
</svg>
