<svg xmlns="http://www.w3.org/2000/svg" width="25" height="25" viewBox="0 0 25 25">
    <g fill="none" fill-rule="evenodd">
        <g fill-rule="nonzero">
            <g>
                <g>
                    <g>
                        <g>
                            <g>
                                <g>
                                    <path fill="#393939" d="M12.5 0C19.404 0 25 5.596 25 12.5S19.404 25 12.5 25 0 19.404 0 12.5 5.596 0 12.5 0z" transform="translate(-20 -963) translate(-1) translate(11 221) translate(0 700) translate(0 -1) translate(10 7) translate(0 36)"/>
                                    <path fill="#FFF" d="M20.827 12.017h-5.979l5.555-2.294.006-.001-.03-.066-.341-.773-5.561 2.295 4.25-4.245-.67-.667-4.223 4.245 2.296-5.544.003-.01-.205-.082-.639-.255-.02-.01v.002l-2.3 5.552V4.167h-.938v5.999L9.74 4.622l-.005-.011-.095.04-.745.33 2.298 5.555L6.945 6.27l-.003-.004-.665.667.003.003 4.245 4.242-5.534-2.297-.346.864 5.56 2.296H4.173v.937h6.005l-5.555 2.294-.004.003.026.069.199.494.12.301.014-.006 5.545-2.314-4.248 4.245.667.669 4.25-4.247-2.305 5.552c.274.13.554.245.838.345l.01-.022 2.321-5.53v5.999h.94V14.83l2.298 5.552c.29-.103.576-.22.854-.355l-2.31-5.569 4.248 4.246.667-.666-4.273-4.223 5.56 2.296.348-.864-5.561-2.296h6.003v-.935h-.003zM12.5 14.34c-.491 0-.963-.194-1.31-.541-.348-.348-.542-.82-.542-1.31.007-1.02.832-1.845 1.852-1.852 1.02.007 1.845.831 1.853 1.852-.007 1.02-.833 1.845-1.853 1.851zm0-2.794c-.335 0-.645.18-.812.471-.168.291-.167.649.001.94.168.29.479.468.814.467.519 0 .938-.422.938-.94-.001-.519-.422-.939-.941-.938zm0-10.139C6.376 1.412 1.412 6.376 1.406 12.5c0 6.117 4.977 11.095 11.094 11.095 6.119 0 11.095-4.978 11.095-11.095 0-6.119-4.978-11.094-11.095-11.094zm0 20.833c-5.376-.006-9.733-4.363-9.74-9.739.006-5.377 4.363-9.735 9.74-9.74 5.372 0 9.74 4.368 9.74 9.74s-4.368 9.74-9.74 9.74z" transform="translate(-20 -963) translate(-1) translate(11 221) translate(0 700) translate(0 -1) translate(10 7) translate(0 36)"/>
                                </g>
                            </g>
                        </g>
                    </g>
                </g>
            </g>
        </g>
    </g>
</svg>
