<svg xmlns="http://www.w3.org/2000/svg" xmlns:xlink="http://www.w3.org/1999/xlink" width="25" height="25" viewBox="0 0 25 25">
    <defs>
        <path id="lu72iuz6ya" d="M9.024 12.5L7.19 5.66h15.296l-2.864 6.84H9.024zm2.032 8.167c0 .762-.622 1.382-1.382 1.382-.762 0-1.382-.62-1.382-1.382 0-.762.62-1.382 1.382-1.382.76 0 1.382.62 1.382 1.382zm9.673-1.382c.761 0 1.382.62 1.382 1.382 0 .762-.621 1.382-1.382 1.382-.762 0-1.382-.62-1.382-1.382 0-.762.62-1.382 1.382-1.382zm.488-5.391l3.705-8.85c.13-.31.096-.665-.09-.945-.186-.28-.5-.449-.836-.449H6.649L5.87.745C5.752.305 5.354 0 4.9 0H1.006C.449 0 0 .45 0 1.005 0 1.561.45 2.01 1.005 2.01h3.124l4.174 15.56c-1.188.527-2.021 1.715-2.021 3.097 0 1.87 1.52 3.392 3.392 3.392 1.534 0 2.818-1.03 3.236-2.431.072.017.14.044.218.044h4.377c.432 1.378 1.706 2.387 3.224 2.387 1.87 0 3.392-1.522 3.392-3.392 0-1.87-1.521-3.392-3.392-3.392-1.518 0-2.792 1.009-3.224 2.387h-4.377c-.077 0-.146.027-.218.044-.361-1.212-1.37-2.142-2.633-2.37-.003-.073.006-.146-.014-.22l-.699-2.605H20.29c.405 0 .77-.243.928-.617z"/>
    </defs>
    <g fill="none" fill-rule="evenodd">
        <g>
            <g>
                <g>
                    <g transform="translate(-313 -1055) translate(-1) translate(296 1037) translate(18 18)">
                        <mask id="id66zdafab" fill="#fff">
                            <use xlink:href="#lu72iuz6ya"/>
                        </mask>
                        <use fill="#1D1D1B" xlink:href="#lu72iuz6ya"/>
                        <g fill="#FFF" mask="url(#id66zdafab)">
                            <path d="M0 0H25V25H0z"/>
                        </g>
                    </g>
                </g>
            </g>
        </g>
    </g>
</svg>
