<svg xmlns="http://www.w3.org/2000/svg" xmlns:xlink="http://www.w3.org/1999/xlink" width="26" height="25" viewBox="0 0 26 25">
    <defs>
        <path id="62bnumqlta" d="M19.366 23.456H3.634c-1.165 0-2.113-.964-2.113-2.147v-.634c.668.79 1.644 1.301 2.746 1.301h14.581c1.037 0 1.97-.448 2.631-1.158v.491c0 1.183-.948 2.147-2.113 2.147zM5.314 3.188v.6c0 .575.464 1.046 1.03 1.046h.12c.568 0 1.032-.47 1.032-1.046v-.6h8.192v.6c0 .575.463 1.046 1.031 1.046h.12c.566 0 1.03-.47 1.03-1.046v-.6h.98c1.165 0 2.113.964 2.113 2.147v12.951c0 1.183-.948 2.146-2.114 2.146H4.268c-1.166 0-2.113-.963-2.113-2.146V5.335c0-1.183.947-2.147 2.112-2.147h1.047zm14.052-1.544H17.87v-.598C17.87.47 17.405 0 16.839 0h-.12c-.568 0-1.031.47-1.031 1.046v.598H7.496v-.598C7.496.47 7.032 0 6.465 0h-.12c-.567 0-1.031.47-1.031 1.046v.598h-1.68C1.63 1.644 0 3.301 0 5.335v15.974C0 23.345 1.63 25 3.634 25h15.732C21.371 25 23 23.345 23 21.31V5.334c0-2.034-1.63-3.69-3.634-3.69z"/>
    </defs>
    <g fill="none" fill-rule="evenodd">
        <g>
            <g>
                <g>
                    <g>
                        <g>
                            <g transform="translate(-95 -1130) translate(-1) translate(0 1121) translate(73 4) translate(23.5 5) translate(1)">
                                <mask id="3phi3revtb" fill="#fff">
                                    <use xlink:href="#62bnumqlta"/>
                                </mask>
                                <use fill="#606060" xlink:href="#62bnumqlta"/>
                                <g fill="#666" mask="url(#3phi3revtb)">
                                    <path d="M0 0H25V25H0z" transform="translate(-1)"/>
                                </g>
                            </g>
                            <text fill="#666" font-family="Metropolis-Bold, Metropolis" font-size="10" font-weight="bold" transform="translate(-95 -1130) translate(-1) translate(0 1121) translate(73 4) translate(23.5 5)">
                                <tspan x="7.37" y="15">21</tspan>
                            </text>
                        </g>
                    </g>
                </g>
            </g>
        </g>
    </g>
</svg>
