<svg xmlns="http://www.w3.org/2000/svg" xmlns:xlink="http://www.w3.org/1999/xlink" width="26" height="25" viewBox="0 0 26 25">
    <defs>
        <path id="88gqfeudca" d="M22.369 19.65H2.927c-1.003-2.369-1.512-4.762-1.512-7.12 0-2.359.509-4.752 1.512-7.121h19.45c.801 2.29 1.208 4.654 1.208 7.035 0 2.387-.41 4.808-1.216 7.207m1.166-15.193L23.365 4H2.003l-.187.417C.611 7.104 0 9.833 0 12.53c0 2.696.611 5.425 1.817 8.112l.187.417H23.37l.168-.468C24.509 17.89 25 15.148 25 12.444c0-2.708-.492-5.395-1.465-7.986M16.2 5.4h.982v14.3H16.2V5.4zm-6.718 0v14.3H8.5V5.4h.982zm-6.226 5.096c.962-.516 1.878-.201 1.878-.201 1.166.444 1.707-.072 1.707-.072l.541.456c-1.088 1.113-1.236 2.782-1.245 3.501v.165c.002.118.007.184.007.184H3.606c0-1.703 1.768-2.699 1.768-2.699-.601.073-1.006-.131-1.487-.18-.481-.047-.665.685-.665.685H2.5V10.26h.758zm8 0c.962-.516 1.878-.201 1.878-.201 1.166.444 1.707-.072 1.707-.072l.541.456c-1.088 1.113-1.236 2.782-1.245 3.501v.165c.002.118.007.184.007.184h-2.538c0-1.703 1.768-2.699 1.768-2.699-.601.073-1.006-.131-1.487-.18-.481-.047-.665.685-.665.685H10.5V10.26h.758zm7.5 0c.962-.516 1.878-.201 1.878-.201 1.166.444 1.707-.072 1.707-.072l.541.456c-1.088 1.113-1.236 2.782-1.245 3.501v.165c.002.118.007.184.007.184h-2.538c0-1.703 1.768-2.699 1.768-2.699-.601.073-1.006-.131-1.487-.18-.481-.047-.665.685-.665.685H18V10.26h.758z"/>
    </defs>
    <g fill="none" fill-rule="evenodd">
        <g>
            <g>
                <g>
                    <g>
                        <g transform="translate(-311 -1130) translate(-1) translate(0 1121) translate(289 4) translate(23.5 5)">
                            <mask id="pef6il5gmb" fill="#fff">
                                <use xlink:href="#88gqfeudca"/>
                            </mask>
                            <g fill="#666" mask="url(#pef6il5gmb)">
                                <path d="M0 0H25V25H0z"/>
                            </g>
                        </g>
                    </g>
                </g>
            </g>
        </g>
    </g>
</svg>
