<svg xmlns="http://www.w3.org/2000/svg" xmlns:xlink="http://www.w3.org/1999/xlink" width="22" height="22" viewBox="0 0 22 22">
    <defs>
        <path id="whvu7umzaa" d="M15.4 17.6c.243 0 .44.197.44.44s-.197.44-.44.44H6.6c-.243 0-.44-.197-.44-.44s.197-.44.44-.44h8.8zm6.1-14.08c.276 0 .5.224.5.5v12.2c0 .276-.224.5-.5.5H.5c-.276 0-.5-.224-.5-.5V4.02c0-.276.224-.5.5-.5h21zM9.246 7.927l-.006.082v4.222c0 .394.426.639.78.48l.075-.04 3.3-2.112c.3-.191.324-.594.075-.821l-.075-.057-3.3-2.111c-.341-.219-.79-.014-.849.357z"/>
    </defs>
    <g fill="none" fill-rule="evenodd">
        <g>
            <g>
                <g>
                    <g>
                        <g>
                            <g>
                                <g>
                                    <g transform="translate(-97 -339) translate(-1) translate(11 221) translate(-1.133) translate(1.133 110) translate(10 8) translate(38) translate(39)">
                                        <g fill="#FFF">
                                            <path d="M0 0H22V11.44H0z" transform="translate(0 4.35)"/>
                                        </g>
                                        <mask id="kmava0vakb" fill="#fff">
                                            <use xlink:href="#whvu7umzaa"/>
                                        </mask>
                                        <use fill="#B02727" fill-rule="nonzero" xlink:href="#whvu7umzaa"/>
                                        <g fill="#D2161E" mask="url(#kmava0vakb)">
                                            <path d="M0 0H22V22H0z"/>
                                        </g>
                                    </g>
                                </g>
                            </g>
                        </g>
                    </g>
                </g>
            </g>
        </g>
    </g>
</svg>
