<svg xmlns="http://www.w3.org/2000/svg" xmlns:xlink="http://www.w3.org/1999/xlink" width="26" height="25" viewBox="0 0 26 25">
    <defs>
        <path id="8vhvwk2toa" d="M21.54 9.029c-.464.628-.848 1.071-1.309 1.387.027-.247.046-.484.046-.698v-5.29c.982-.004 2.167-.015 2.231-.041.16 2.023-.158 3.542-.969 4.642m-8.995 7.024c-5.079 0-6.222-4.402-6.222-5.944V3.425l-.003-.264c-.01-.474-.02-1.01.245-1.282.217-.222.666-.338 1.299-.338h9.46c.911 0 1.413 0 1.413 1.926v6.25c0 1.34-1.05 6.336-6.192 6.336m-9.006-7.02c-.8-1.103-1.114-2.623-.976-4.6h2.217l.002 5.676c0 .054.006.113.007.169-.425-.313-.873-.727-1.25-1.245m20.507-4.767c-.059-.728-.669-1.304-1.49-1.374-.016-.002-1.278-.002-2.299-.002C20.076.36 18.686 0 17.323 0h-9.46C6.777 0 5.992.262 5.465.8c-.619.63-.69 1.452-.69 2.091-1.008 0-2.251 0-2.29.003-.777.069-1.383.645-1.442 1.374-.185 2.404.223 4.258 1.247 5.67.845 1.163 1.96 1.942 2.83 2.297.738 2.43 2.765 5.005 6.636 5.318v5.906H7.132c-.426 0-.77.345-.77.77 0 .426.344.771.77.771H17.92c.425 0 .77-.345.77-.77 0-.426-.345-.771-.77-.771h-4.623V17.55c3.727-.313 5.68-2.89 6.496-5.244 1.47-.458 2.238-1.345 2.987-2.365 1.04-1.41 1.453-3.266 1.265-5.676"/>
    </defs>
    <g fill="none" fill-rule="evenodd">
        <g>
            <g>
                <g>
                    <g>
                        <g transform="translate(-239 -1130) translate(-1) translate(0 1121) translate(217 4) translate(23.5 5)">
                            <mask id="ynzlc9xb9b" fill="#fff">
                                <use xlink:href="#8vhvwk2toa"/>
                            </mask>
                            <use fill="#676767" xlink:href="#8vhvwk2toa"/>
                            <g fill="#666" mask="url(#ynzlc9xb9b)">
                                <path d="M0 0H25V25H0z"/>
                            </g>
                        </g>
                    </g>
                </g>
            </g>
        </g>
    </g>
</svg>
