<svg xmlns="http://www.w3.org/2000/svg" width="25" height="25" viewBox="0 0 25 25">
    <g fill="none" fill-rule="evenodd">
        <g fill-rule="nonzero">
            <g>
                <g>
                    <g>
                        <g>
                            <g>
                                <g>
                                    <path fill="#FFBF00" d="M12.5 0C19.404 0 25 5.596 25 12.5S19.404 25 12.5 25 0 19.404 0 12.5 5.596 0 12.5 0z" transform="translate(-20 -800) translate(-1) translate(11 221) translate(0 557) translate(0 -1) translate(10 11) translate(0 12)"/>
                                    <path fill="#FFF" d="M17.512 21.583c-1.578.918-3.372 1.403-5.198 1.405-3.73-.009-7.173-2.007-9.03-5.243-1.391-2.41-1.766-5.275-1.042-7.962 1.202-4.57 5.328-7.761 10.053-7.775 3.732.01 7.174 2.01 9.03 5.247 2.873 5.006 1.163 11.434-3.813 14.328zM15.386 3.889c-.794 2.142-.601 4.525.527 6.511 1.14 1.975 3.101 3.338 5.35 3.717.385-2.13.008-4.326-1.068-6.205-1.08-1.865-2.782-3.29-4.81-4.023zM4.414 17.084c1.079 1.867 2.782 3.292 4.81 4.024.795-2.142.603-4.525-.524-6.513-1.143-1.975-3.106-3.338-5.356-3.72-.389 2.131-.01 4.331 1.07 6.21zm7.881-13.759c-1.597.002-3.165.427-4.545 1.231C5.773 5.705 4.355 7.53 3.66 9.703c2.562.46 4.79 2.028 6.085 4.285 1.297 2.27 1.528 4.997.633 7.454.63.14 1.275.23 1.933.23 3.966-.013 7.467-2.595 8.651-6.38-2.567-.455-4.8-2.023-6.101-4.283-1.293-2.272-1.524-4.998-.633-7.456-.634-.145-1.282-.221-1.933-.228z" transform="translate(-20 -800) translate(-1) translate(11 221) translate(0 557) translate(0 -1) translate(10 11) translate(0 12)"/>
                                </g>
                            </g>
                        </g>
                    </g>
                </g>
            </g>
        </g>
    </g>
</svg>
